
<svg viewBox="0 0 150 150" fill="none" xmlns="http://www.w3.org/2000/svg">
  <path d="M57.5 115C57.5 115 45 100 47.5 87.5C50 75 60 75 65 77.5C70 80 72.5 85 72.5 85" stroke="#1A1F2C" stroke-width="3"/>
  <path d="M70 85C70 85 80 75 90 77.5C100 80 100 90 100 90" stroke="#1A1F2C" stroke-width="3"/>
  <rect x="45" y="40" width="20" height="35" rx="4" fill="#1A1F2C"/>
  <rect x="75" y="32.5" width="15" height="42.5" rx="4" fill="#1A1F2C"/>
  <path d="M102.5 35H107.5C109.709 35 111.5 36.7909 111.5 39V69C111.5 71.2091 109.709 73 107.5 73H102.5C100.291 73 98.5 71.2091 98.5 69V39C98.5 36.7909 100.291 35 102.5 35Z" fill="#1A1F2C"/>
  <path d="M58.75 47.5H51.25C50.5596 47.5 50 48.0596 50 48.75V51.25C50 51.9404 50.5596 52.5 51.25 52.5H58.75C59.4404 52.5 60 51.9404 60 51.25V48.75C60 48.0596 59.4404 47.5 58.75 47.5Z" fill="white"/>
  <path d="M58.75 57.5H51.25C50.5596 57.5 50 58.0596 50 58.75V61.25C50 61.9404 50.5596 62.5 51.25 62.5H58.75C59.4404 62.5 60 61.9404 60 61.25V58.75C60 58.0596 59.4404 57.5 58.75 57.5Z" fill="white"/>
  <circle cx="82.5" cy="42.5" r="2.5" fill="white"/>
  <circle cx="82.5" cy="52.5" r="2.5" fill="white"/>
  <circle cx="82.5" cy="62.5" r="2.5" fill="white"/>
  <rect x="102.5" y="42.5" width="5" height="5" rx="1" fill="white"/>
  <rect x="102.5" y="52.5" width="5" height="5" rx="1" fill="white"/>
  <rect x="102.5" y="62.5" width="5" height="5" rx="1" fill="white"/>
  <text x="35" y="135" font-family="Arial" font-weight="bold" font-size="12" fill="#1A1F2C">REPAIR AUTOPILOT</text>
</svg>
